<?xml version="1.0" encoding="UTF-8" standalone="no"?><!DOCTYPE svg PUBLIC "-//W3C//DTD SVG 1.1//EN" "http://www.w3.org/Graphics/SVG/1.1/DTD/svg11.dtd"><svg width="100%" height="100%" viewBox="0 0 600 200" version="1.1" xmlns="http://www.w3.org/2000/svg" xmlns:xlink="http://www.w3.org/1999/xlink" xml:space="preserve" xmlns:serif="http://www.serif.com/" style="fill-rule:evenodd;clip-rule:evenodd;stroke-linejoin:round;stroke-miterlimit:1.41421;"><path d="M65.344,103.025c-0.328,1.341 -0.557,2.584 -0.688,3.73c-4.155,0.818 -8.032,1.227 -11.631,1.227c-3.403,0 -6.585,-0.474 -9.546,-1.422c-2.962,-0.948 -5.506,-2.476 -7.632,-4.585c-2.127,-2.109 -3.706,-4.756 -4.737,-7.944c-1.03,-3.187 -1.546,-6.529 -1.546,-10.026c0,-4.773 0.81,-9.317 2.43,-13.632c1.619,-4.314 4.204,-7.722 7.754,-10.223c3.551,-2.501 8.352,-3.751 14.405,-3.751c4.418,0 8.622,0.605 12.614,1.816c0.033,1.079 0.147,2.225 0.343,3.435c-3.402,-1.047 -6.069,-1.726 -8,-2.037c-1.93,-0.31 -3.697,-0.466 -5.3,-0.466c-3.436,0 -6.479,0.662 -9.129,1.986c-2.65,1.323 -4.851,3.194 -6.601,5.613c-1.751,2.419 -2.994,5.124 -3.73,8.114c-0.737,2.991 -1.105,5.99 -1.105,8.997c0,3.236 0.409,6.259 1.227,9.07c0.818,2.811 2.127,5.099 3.927,6.864c1.799,1.765 4.008,3.113 6.626,4.045c2.617,0.931 5.366,1.397 8.245,1.397c1.603,0 3.305,-0.155 5.104,-0.466c1.8,-0.311 4.123,-0.892 6.97,-1.742Z" style="fill:#fff;fill-rule:nonzero;"/><path d="M99.896,56.399c3.043,0 5.987,0.425 8.834,1.276c2.847,0.851 5.358,2.298 7.534,4.343c2.176,2.045 3.836,4.72 4.981,8.025c1.146,3.305 1.718,6.806 1.718,10.503c0,3.992 -0.605,7.82 -1.816,11.485c-1.21,3.664 -2.928,6.732 -5.153,9.202c-2.225,2.47 -4.834,4.213 -7.828,5.227c-2.994,1.014 -6.176,1.522 -9.546,1.522c-2.356,0 -4.671,-0.27 -6.945,-0.81c-2.274,-0.54 -4.401,-1.448 -6.381,-2.724c-1.979,-1.276 -3.713,-2.929 -5.202,-4.957c-1.489,-2.029 -2.618,-4.434 -3.386,-7.215c-0.769,-2.781 -1.154,-5.677 -1.154,-8.687c0,-5.268 0.982,-10.086 2.945,-14.454c1.963,-4.368 4.9,-7.583 8.81,-9.644c3.91,-2.062 8.106,-3.092 12.589,-3.092Zm-0.098,2.748c-3.894,0 -7.51,0.948 -10.847,2.844c-3.338,1.896 -5.791,4.788 -7.362,8.678c-1.571,3.889 -2.356,8.155 -2.356,12.796c0,3.268 0.45,6.34 1.35,9.217c0.9,2.876 2.347,5.303 4.343,7.28c1.996,1.978 4.148,3.351 6.454,4.119c2.307,0.768 4.737,1.152 7.289,1.152c2.912,0 5.644,-0.474 8.196,-1.422c2.552,-0.948 4.802,-2.533 6.748,-4.755c1.947,-2.223 3.379,-4.952 4.295,-8.188c0.916,-3.236 1.374,-6.668 1.374,-10.296c0,-3.366 -0.45,-6.529 -1.349,-9.486c-0.9,-2.958 -2.299,-5.328 -4.197,-7.109c-1.898,-1.782 -4.057,-3.032 -6.478,-3.751c-2.422,-0.719 -4.908,-1.079 -7.46,-1.079Z" style="fill:#fff;fill-rule:nonzero;"/><path d="M133.417,107l0.539,-6.675c0.098,-1.341 0.18,-2.683 0.246,-4.024l1.273,-32.737c0.033,-2.388 0.05,-4.433 0.05,-6.135c0.654,0.033 1.293,0.05 1.915,0.05c0.622,0 1.245,-0.017 1.867,-0.05l-0.506,10.307c1.047,-1.996 2.012,-3.566 2.895,-4.711c0.884,-1.146 2.07,-2.242 3.559,-3.289c1.488,-1.047 3.19,-1.865 5.104,-2.454c1.914,-0.589 3.901,-0.883 5.962,-0.883c1.767,0 3.452,0.229 5.056,0.687c1.603,0.458 2.969,1.031 4.098,1.718c1.129,0.687 2.069,1.456 2.822,2.306c0.752,0.851 1.333,1.735 1.742,2.651c0.409,0.916 0.81,2.176 1.203,3.779c0.654,-1.276 1.277,-2.38 1.866,-3.313c0.589,-0.933 1.383,-1.89 2.381,-2.871c0.999,-0.982 2.185,-1.841 3.56,-2.577c1.375,-0.736 2.905,-1.317 4.591,-1.742c1.686,-0.426 3.413,-0.638 5.181,-0.638c2.717,0 5.287,0.466 7.709,1.399c2.422,0.932 4.296,2.429 5.622,4.49c1.326,2.062 1.989,4.532 1.989,7.411c0,1.604 -0.114,4.033 -0.342,7.289c-0.229,3.255 -0.481,7.885 -0.758,13.889c-0.277,6.004 -0.432,11.379 -0.465,16.123c-0.852,-0.033 -1.507,-0.049 -1.966,-0.049c-0.459,0 -1.114,0.016 -1.966,0.049c0.295,-4.025 0.59,-8.834 0.885,-14.429l0.737,-13.497c0.197,-3.371 0.295,-6.152 0.295,-8.344c0,-1.145 -0.049,-2.135 -0.147,-2.969c-0.098,-0.835 -0.319,-1.653 -0.662,-2.454c-0.344,-0.802 -0.843,-1.563 -1.497,-2.282c-0.655,-0.72 -1.448,-1.35 -2.381,-1.89c-0.933,-0.54 -2.054,-0.965 -3.362,-1.276c-1.309,-0.311 -2.7,-0.466 -4.173,-0.466c-2.127,0 -4.09,0.327 -5.89,0.981c-1.8,0.655 -3.42,1.579 -4.859,2.773c-1.44,1.195 -2.626,2.618 -3.559,4.27c-0.933,1.653 -1.694,3.918 -2.283,6.798c-0.513,2.454 -0.87,6.838 -1.069,13.153l-0.546,19.632c-0.852,-0.033 -1.507,-0.049 -1.965,-0.049c-0.459,0 -1.114,0.016 -1.966,0.049c0.332,-4.483 0.58,-8.867 0.746,-13.153l0.596,-12.368c0.199,-3.927 0.299,-7.182 0.299,-9.767c0,-2.431 -0.23,-4.296 -0.688,-5.593c-0.459,-1.298 -1.204,-2.456 -2.236,-3.474c-1.031,-1.018 -2.325,-1.815 -3.88,-2.39c-1.556,-0.575 -3.267,-0.862 -5.134,-0.862c-2.031,0 -3.971,0.336 -5.822,1.008c-1.85,0.673 -3.496,1.624 -4.937,2.854c-1.441,1.23 -2.661,2.739 -3.66,4.527c-0.999,1.788 -1.809,4.158 -2.432,7.11c-0.524,2.559 -0.931,7.11 -1.222,13.654c-0.323,7.231 -0.485,13.382 -0.485,18.454c-0.851,-0.033 -1.506,-0.049 -1.964,-0.049c-0.459,0 -1.114,0.016 -1.966,0.049Z" style="fill:#fff;fill-rule:nonzero;"/><path d="M215.724,128.742l0.578,-9.907l1.542,-44.435l0.337,-14.909c4.258,-1.145 7.984,-1.947 11.178,-2.405c3.193,-0.458 6.296,-0.687 9.31,-0.687c4.782,0 8.917,0.81 12.405,2.429c3.489,1.62 6.199,4.393 8.132,8.319c1.932,3.927 2.898,8.393 2.898,13.399c0,5.301 -1.023,10.16 -3.069,14.577c-2.046,4.417 -4.812,7.664 -8.298,9.742c-3.486,2.078 -7.374,3.117 -11.662,3.117c-1.931,0 -3.83,-0.213 -5.696,-0.638c-1.866,-0.426 -3.577,-1.072 -5.132,-1.939c-1.555,-0.867 -2.88,-1.931 -3.977,-3.19c-1.097,-1.26 -2.365,-3.231 -3.805,-5.914l-0.763,25.973l0,1.665c0,1.111 0.017,2.712 0.05,4.803c-0.852,-0.032 -1.523,-0.049 -2.014,-0.049c-0.492,0 -1.163,0.017 -2.014,0.049Zm6.282,-66.208c-0.267,2.781 -0.509,6.756 -0.725,11.926c-0.217,5.17 -0.325,8.589 -0.325,10.258c0,2.846 0.295,5.489 0.884,7.926c0.59,2.438 1.771,4.663 3.541,6.675c1.77,2.012 3.86,3.526 6.269,4.54c2.409,1.014 4.909,1.521 7.499,1.521c3.704,0 7.031,-0.998 9.981,-2.993c2.95,-1.996 5.237,-4.949 6.859,-8.859c1.623,-3.91 2.434,-8.172 2.434,-12.786c0,-4.613 -0.835,-8.605 -2.506,-11.975c-1.671,-3.37 -3.94,-5.816 -6.807,-7.338c-2.867,-1.521 -6.119,-2.282 -9.756,-2.282c-5.471,0 -11.254,1.129 -17.348,3.387Z" style="fill:#fff;fill-rule:nonzero;"/><path d="M310.006,102.141c-0.262,1.227 -0.458,2.47 -0.589,3.73c-2.716,0.785 -5.153,1.333 -7.313,1.644c-2.159,0.311 -4.368,0.467 -6.625,0.467c-3.927,0 -7.403,-0.532 -10.43,-1.594c-3.027,-1.062 -5.62,-2.828 -7.779,-5.296c-2.16,-2.468 -3.697,-5.238 -4.614,-8.311c-0.916,-3.072 -1.374,-6.341 -1.374,-9.806c0,-4.544 0.785,-8.802 2.356,-12.774c1.571,-3.971 4.155,-7.265 7.755,-9.88c3.599,-2.615 8.065,-3.922 13.398,-3.922c3.665,0 6.986,0.679 9.964,2.037c2.977,1.357 5.292,3.574 6.944,6.65c1.653,3.076 2.479,6.724 2.479,10.945c0,0.785 -0.033,1.538 -0.098,2.257l-38.871,0.049c-0.164,2.123 -0.246,3.724 -0.246,4.802c0,3.103 0.459,6.107 1.376,9.014c0.918,2.907 2.302,5.34 4.153,7.299c1.852,1.96 4.071,3.413 6.66,4.36c2.588,0.948 5.324,1.421 8.208,1.421c4.39,0 9.272,-1.031 14.646,-3.092Zm-34.356,-26.503l34.945,0.049c-0.033,-2.258 -0.164,-3.992 -0.393,-5.202c-0.229,-1.211 -0.655,-2.454 -1.278,-3.73c-0.623,-1.276 -1.368,-2.381 -2.237,-3.313c-0.868,-0.933 -1.884,-1.718 -3.047,-2.356c-1.163,-0.638 -2.465,-1.121 -3.907,-1.448c-1.442,-0.327 -2.949,-0.491 -4.521,-0.491c-1.737,0 -3.441,0.197 -5.112,0.589c-1.671,0.393 -3.195,0.933 -4.571,1.62c-1.376,0.687 -2.662,1.562 -3.858,2.626c-1.196,1.063 -2.179,2.216 -2.949,3.46c-0.77,1.243 -1.359,2.429 -1.769,3.558c-0.41,1.129 -0.844,2.675 -1.303,4.638Z" style="fill:#fff;fill-rule:nonzero;"/><path d="M346.276,56.399c3.043,0 5.988,0.425 8.834,1.276c2.847,0.851 5.358,2.298 7.534,4.343c2.176,2.045 3.837,4.72 4.982,8.025c1.145,3.305 1.718,6.806 1.718,10.503c0,3.992 -0.606,7.82 -1.816,11.485c-1.211,3.664 -2.929,6.732 -5.154,9.202c-2.225,2.47 -4.834,4.213 -7.828,5.227c-2.994,1.014 -6.176,1.522 -9.546,1.522c-2.356,0 -4.671,-0.27 -6.945,-0.81c-2.274,-0.54 -4.401,-1.448 -6.38,-2.724c-1.98,-1.276 -3.714,-2.929 -5.203,-4.957c-1.488,-2.029 -2.617,-4.434 -3.386,-7.215c-0.769,-2.781 -1.153,-5.677 -1.153,-8.687c0,-5.268 0.981,-10.086 2.944,-14.454c1.963,-4.368 4.9,-7.583 8.81,-9.644c3.91,-2.062 8.106,-3.092 12.589,-3.092Zm-0.098,2.748c-3.894,0 -7.509,0.948 -10.847,2.844c-3.337,1.896 -5.791,4.788 -7.362,8.678c-1.57,3.889 -2.356,8.155 -2.356,12.796c0,3.268 0.45,6.34 1.35,9.217c0.9,2.876 2.348,5.303 4.344,7.28c1.996,1.978 4.147,3.351 6.454,4.119c2.306,0.768 4.736,1.152 7.288,1.152c2.912,0 5.644,-0.474 8.196,-1.422c2.553,-0.948 4.802,-2.533 6.749,-4.755c1.947,-2.223 3.378,-4.952 4.294,-8.188c0.916,-3.236 1.375,-6.668 1.375,-10.296c0,-3.366 -0.45,-6.529 -1.35,-9.486c-0.9,-2.958 -2.299,-5.328 -4.196,-7.109c-1.898,-1.782 -4.058,-3.032 -6.479,-3.751c-2.421,-0.719 -4.908,-1.079 -7.46,-1.079Z" style="fill:#fff;fill-rule:nonzero;"/><path d="M379.11,128.742l0.579,-9.907l1.541,-44.435l0.337,-14.909c4.259,-1.145 7.985,-1.947 11.178,-2.405c3.194,-0.458 6.297,-0.687 9.31,-0.687c4.782,0 8.918,0.81 12.406,2.429c3.488,1.62 6.199,4.393 8.131,8.319c1.933,3.927 2.899,8.393 2.899,13.399c0,5.301 -1.023,10.16 -3.069,14.577c-2.046,4.417 -4.812,7.664 -8.299,9.742c-3.486,2.078 -7.373,3.117 -11.661,3.117c-1.932,0 -3.831,-0.213 -5.697,-0.638c-1.866,-0.426 -3.576,-1.072 -5.131,-1.939c-1.555,-0.867 -2.881,-1.931 -3.978,-3.19c-1.096,-1.26 -2.365,-3.231 -3.805,-5.914l-0.762,25.973l0,1.665c0,1.111 0.016,2.712 0.049,4.803c-0.851,-0.032 -1.522,-0.049 -2.014,-0.049c-0.491,0 -1.162,0.017 -2.014,0.049Zm6.283,-66.208c-0.267,2.781 -0.509,6.756 -0.726,11.926c-0.217,5.17 -0.325,8.589 -0.325,10.258c0,2.846 0.295,5.489 0.885,7.926c0.59,2.438 1.77,4.663 3.54,6.675c1.77,2.012 3.86,3.526 6.269,4.54c2.41,1.014 4.909,1.521 7.499,1.521c3.704,0 7.031,-0.998 9.981,-2.993c2.951,-1.996 5.237,-4.949 6.86,-8.859c1.622,-3.91 2.434,-8.172 2.434,-12.786c0,-4.613 -0.836,-8.605 -2.507,-11.975c-1.671,-3.37 -3.94,-5.816 -6.806,-7.338c-2.867,-1.521 -6.119,-2.282 -9.756,-2.282c-5.472,0 -11.254,1.129 -17.348,3.387Z" style="fill:#fff;fill-rule:nonzero;"/><path d="M436.337,107c1.504,-27.288 2.386,-49.62 2.648,-66.994c0.851,0.033 1.522,0.049 2.013,0.049c0.492,0 1.163,-0.016 2.014,-0.049l-1.239,23.902l-1.408,43.092c-0.851,-0.033 -1.522,-0.049 -2.014,-0.049c-0.491,0 -1.162,0.016 -2.014,0.049Z" style="fill:#fff;fill-rule:nonzero;"/><path d="M492.19,102.141c-0.262,1.227 -0.458,2.47 -0.589,3.73c-2.716,0.785 -5.153,1.333 -7.313,1.644c-2.159,0.311 -4.368,0.467 -6.625,0.467c-3.927,0 -7.403,-0.532 -10.43,-1.594c-3.026,-1.062 -5.62,-2.828 -7.779,-5.296c-2.16,-2.468 -3.697,-5.238 -4.614,-8.311c-0.916,-3.072 -1.374,-6.341 -1.374,-9.806c0,-4.544 0.786,-8.802 2.356,-12.774c1.571,-3.971 4.156,-7.265 7.755,-9.88c3.599,-2.615 8.065,-3.922 13.398,-3.922c3.665,0 6.986,0.679 9.964,2.037c2.977,1.357 5.292,3.574 6.944,6.65c1.653,3.076 2.479,6.724 2.479,10.945c0,0.785 -0.033,1.538 -0.098,2.257l-38.871,0.049c-0.164,2.123 -0.246,3.724 -0.246,4.802c0,3.103 0.459,6.107 1.376,9.014c0.918,2.907 2.302,5.34 4.153,7.299c1.852,1.96 4.071,3.413 6.66,4.36c2.588,0.948 5.324,1.421 8.208,1.421c4.39,0 9.272,-1.031 14.646,-3.092Zm-34.356,-26.503l34.945,0.049c-0.033,-2.258 -0.164,-3.992 -0.393,-5.202c-0.229,-1.211 -0.655,-2.454 -1.278,-3.73c-0.623,-1.276 -1.368,-2.381 -2.236,-3.313c-0.869,-0.933 -1.885,-1.718 -3.048,-2.356c-1.163,-0.638 -2.465,-1.121 -3.907,-1.448c-1.442,-0.327 -2.949,-0.491 -4.521,-0.491c-1.737,0 -3.441,0.197 -5.112,0.589c-1.671,0.393 -3.195,0.933 -4.571,1.62c-1.376,0.687 -2.662,1.562 -3.858,2.626c-1.196,1.063 -2.179,2.216 -2.949,3.46c-0.769,1.243 -1.359,2.429 -1.769,3.558c-0.41,1.129 -0.844,2.675 -1.303,4.638Z" style="fill:#fff;fill-rule:nonzero;"/><path d="M332.908,150.178c-0.425,1.963 -1.243,6.707 -2.454,14.233c-3.796,0.753 -6.986,1.252 -9.571,1.497c-2.584,0.245 -5.202,0.368 -7.852,0.368c-3.894,0 -7.477,-0.27 -10.749,-0.809c-3.272,-0.539 -6.094,-1.496 -8.466,-2.868c-2.372,-1.373 -4.36,-3.081 -5.963,-5.125c-1.604,-2.043 -2.822,-4.47 -3.657,-7.281c-0.834,-2.811 -1.251,-5.704 -1.251,-8.679c0,-4.184 0.834,-8.279 2.503,-12.283c1.669,-4.005 3.82,-7.135 6.454,-9.39c2.634,-2.255 5.669,-3.857 9.104,-4.805c3.436,-0.948 6.953,-1.423 10.552,-1.423c3.73,0 7.289,0.434 10.675,1.301c3.387,0.867 6.258,2.38 8.614,4.54c2.355,2.159 4.032,4.597 5.03,7.313c0.998,2.716 1.497,5.644 1.497,8.785c0,1.865 -0.212,3.943 -0.638,6.233l-34.405,0.049c-0.032,0.521 -0.049,0.994 -0.049,1.418c0,3.518 1.26,6.109 3.779,7.771c2.52,1.661 5.595,2.492 9.227,2.492c2.16,0 4.622,-0.253 7.387,-0.76c2.765,-0.508 6.176,-1.366 10.233,-2.577Zm-30.184,-15.853l16.196,0c0.033,-0.556 0.049,-1.031 0.049,-1.423c0,-1.702 -0.302,-3.158 -0.908,-4.368c-0.605,-1.211 -1.472,-2.094 -2.601,-2.651c-1.129,-0.556 -2.397,-0.834 -3.804,-0.834c-0.981,0 -1.93,0.155 -2.846,0.466c-0.916,0.311 -1.743,0.769 -2.479,1.375c-0.736,0.605 -1.349,1.3 -1.84,2.085c-0.491,0.786 -0.851,1.546 -1.08,2.283c-0.229,0.736 -0.458,1.758 -0.687,3.067Z" style="fill:#fff;fill-rule:nonzero;"/><path d="M357.315,165l-5.207,-16.098l-11.74,-34.012c3.733,0.065 7.205,0.098 10.414,0.098c3.34,0 6.484,-0.033 9.431,-0.098c0.557,2.257 1.654,6.208 3.292,11.852c1.637,5.645 3.438,12.36 5.403,20.148l1.275,-4.074c0.196,-0.491 0.964,-2.585 2.305,-6.282l7.797,-21.644c3.531,0.065 6.866,0.098 10.005,0.098c3.237,0 6.604,-0.033 10.103,-0.098l-6.768,14.576l-12.604,28.957l-2.697,6.577c-3.862,-0.065 -7.265,-0.098 -10.21,-0.098c-3.207,0 -6.806,0.033 -10.799,0.098Z" style="fill:#fff;fill-rule:nonzero;"/><path d="M451.632,150.178c-0.425,1.963 -1.243,6.707 -2.454,14.233c-3.796,0.753 -6.986,1.252 -9.571,1.497c-2.585,0.245 -5.202,0.368 -7.852,0.368c-3.894,0 -7.477,-0.27 -10.749,-0.809c-3.272,-0.539 -6.094,-1.496 -8.466,-2.868c-2.372,-1.373 -4.36,-3.081 -5.963,-5.125c-1.604,-2.043 -2.822,-4.47 -3.657,-7.281c-0.834,-2.811 -1.251,-5.704 -1.251,-8.679c0,-4.184 0.834,-8.279 2.503,-12.283c1.668,-4.005 3.82,-7.135 6.454,-9.39c2.634,-2.255 5.668,-3.857 9.104,-4.805c3.436,-0.948 6.953,-1.423 10.552,-1.423c3.73,0 7.289,0.434 10.675,1.301c3.387,0.867 6.258,2.38 8.614,4.54c2.355,2.159 4.032,4.597 5.03,7.313c0.998,2.716 1.497,5.644 1.497,8.785c0,1.865 -0.213,3.943 -0.638,6.233l-34.405,0.049c-0.033,0.521 -0.049,0.994 -0.049,1.418c0,3.518 1.26,6.109 3.779,7.771c2.52,1.661 5.595,2.492 9.227,2.492c2.16,0 4.622,-0.253 7.387,-0.76c2.765,-0.508 6.176,-1.366 10.233,-2.577Zm-30.184,-15.853l16.196,0c0.033,-0.556 0.049,-1.031 0.049,-1.423c0,-1.702 -0.302,-3.158 -0.908,-4.368c-0.605,-1.211 -1.472,-2.094 -2.601,-2.651c-1.129,-0.556 -2.397,-0.834 -3.804,-0.834c-0.981,0 -1.93,0.155 -2.846,0.466c-0.916,0.311 -1.743,0.769 -2.479,1.375c-0.736,0.605 -1.349,1.3 -1.84,2.085c-0.491,0.786 -0.851,1.546 -1.08,2.283c-0.229,0.736 -0.458,1.758 -0.687,3.067Z" style="fill:#fff;fill-rule:nonzero;"/><path d="M462.037,165c0.941,-7.427 1.663,-15.632 2.166,-24.613c0.503,-8.982 0.803,-17.481 0.901,-25.497c3.931,0.065 7.322,0.098 10.172,0.098c3.309,0 6.487,-0.033 9.534,-0.098l-0.489,6.674c1.079,-1.21 2.012,-2.167 2.797,-2.871c0.785,-0.703 1.759,-1.39 2.92,-2.061c1.162,-0.671 2.397,-1.219 3.705,-1.644c1.309,-0.426 2.74,-0.761 4.295,-1.006c1.554,-0.246 3.182,-0.369 4.883,-0.369c2.356,0 4.654,0.254 6.895,0.761c2.241,0.507 4.114,1.227 5.62,2.16c1.505,0.932 2.764,2.094 3.779,3.484c1.014,1.391 1.685,2.888 2.012,4.491c0.327,1.603 0.491,3.256 0.491,4.957c0,1.244 -0.133,3.927 -0.397,8.049l-0.846,17.767c-0.165,3.501 -0.248,6.74 -0.248,9.718c-3.302,-0.065 -6.391,-0.098 -9.268,-0.098c-3.89,0 -7.437,0.033 -10.64,0.098c0.297,-2.978 0.61,-7.403 0.94,-13.276c0.33,-5.873 0.495,-10.004 0.495,-12.393c0,-3.697 -0.713,-6.274 -2.137,-7.73c-1.425,-1.456 -3.218,-2.184 -5.38,-2.184c-1.9,0 -3.693,0.622 -5.38,1.865c-1.686,1.244 -2.988,3.051 -3.905,5.424c-0.917,2.372 -1.565,6.274 -1.942,11.705c-0.377,5.432 -0.632,10.961 -0.763,16.589c-3.271,-0.065 -6.459,-0.098 -9.565,-0.098c-3.271,0 -6.819,0.033 -10.645,0.098Z" style="fill:#fff;fill-rule:nonzero;"/><path d="M567.362,150.571c-0.589,2.748 -1.096,5.431 -1.522,8.049l-1.079,5.987c-3.24,0.72 -5.767,1.178 -7.583,1.375c-1.816,0.196 -3.575,0.294 -5.276,0.294c-2.781,0 -5.252,-0.237 -7.411,-0.712c-2.16,-0.474 -3.959,-1.341 -5.399,-2.601c-1.44,-1.26 -2.421,-2.707 -2.945,-4.343c-0.523,-1.636 -0.785,-3.371 -0.785,-5.203c0,-0.327 0.016,-0.908 0.049,-1.742c0.032,-0.835 0.146,-2.691 0.341,-5.571l1.073,-16.981l-7.647,0c0.163,-2.258 0.31,-5.235 0.441,-8.933l0.147,-4.564l8.133,0c0.195,-1.505 0.439,-4.794 0.731,-9.865l8.402,-1.718c1.54,-0.295 4.815,-1.047 9.827,-2.258c-0.23,4.287 -0.394,8.9 -0.492,13.841l11.191,0c-0.261,6.805 -0.392,11.304 -0.392,13.497l-11.293,0l-0.591,12.27c-0.065,1.832 -0.098,3.01 -0.098,3.533c0,1.571 0.172,2.88 0.516,3.927c0.344,1.047 0.949,1.799 1.816,2.257c0.868,0.459 1.825,0.688 2.873,0.688c0.786,0 1.604,-0.058 2.455,-0.172c0.852,-0.115 2.357,-0.466 4.518,-1.055Z" style="fill:#fff;fill-rule:nonzero;"/></svg>